<svg width="19" height="16" viewBox="0 0 19 16" fill="none" xmlns="http://www.w3.org/2000/svg">
<path d="M7.40611 9.08451C5.4482 11.3259 2.18729 13.7764 0.197918 15.1826C-0.1962 15.4612 0.0443733 16.0843 0.51515 15.9905C3.79554 15.3365 10.2717 13.7547 13.9697 10.9014C16.3245 9.08451 17.2163 7.26758 17.2163 4.54218C17.2163 3.74893 16.5919 3.01452 16.3245 2.72542C15.7895 2.14714 14.8416 1.89041 13.9697 1.89041C13.1634 1.89041 12.4494 2.1367 11.9234 2.63096C11.5962 2.93848 10.8267 4.36745 10.0816 5.45064C9.08231 6.90339 9.06337 7.18732 7.40611 9.08451Z" fill="#B3001B"/>
<path d="M15.4326 3.63386C14.9018 3.09733 14.5408 1.90778 14.5408 1.90778L16.3245 1.81693L18.1082 0L19 0.908466L17.2163 2.7254V4.54218C17.2163 4.54218 15.9855 4.19264 15.4326 3.63386Z" fill="#498467"/>
</svg>
