<svg width="48" height="37" viewBox="0 0 48 37" fill="none" xmlns="http://www.w3.org/2000/svg">
<path d="M22.5821 30.3711C22.5821 28.3744 21.0066 26.6929 19.0109 26.6929C17.0153 26.6929 15.3348 28.2693 15.3348 30.266C15.3348 32.2627 16.9103 33.9442 18.9059 33.9442C20.9015 34.0493 22.5821 32.3678 22.5821 30.3711ZM25.523 24.486V36.2562H22.477V35.2053C21.4267 36.046 20.0613 36.5714 18.5908 36.5714C15.0197 36.5714 12.1838 33.8391 12.1838 30.3711C12.1838 26.9031 15.0197 24.1708 18.5908 24.1708C19.9562 24.1708 21.3217 24.6962 22.477 25.5369V24.486C22.5821 24.486 25.523 24.486 25.523 24.486ZM35.7112 33.6289H33.4004C32.6652 33.6289 32.2451 33.3136 32.2451 32.6831V27.1133H35.7112V24.381H32.2451V21.0181H29.1991V24.381H26.8884V27.1133H29.1991V33.4187C29.1991 34.9951 30.3545 36.2562 32.3501 36.2562H35.6061C35.7112 36.2562 35.7112 33.6289 35.7112 33.6289ZM42.5383 36.5714C46.0044 36.5714 48 34.89 48 32.6831C48 31.1067 46.8446 29.8456 44.4289 29.3202L41.9081 28.7947C40.4376 28.4795 39.9125 28.2693 39.9125 27.7438C39.9125 27.0082 40.6477 26.5878 42.0131 26.5878C43.4836 26.5878 44.5339 27.0082 44.849 28.2693H47.895C47.6849 25.8522 45.8993 24.1708 42.2232 24.1708C39.0722 24.1708 36.8665 25.4319 36.8665 27.954C36.8665 29.6355 38.1269 30.7915 40.7527 31.3169L43.6937 31.9475C44.849 32.1576 45.1641 32.4729 45.1641 32.8933C45.1641 33.6289 44.3239 34.0493 42.8534 34.0493C41.0678 34.0493 40.1225 33.6289 39.7024 32.3678H36.6565C36.9716 34.89 38.7571 36.5714 42.5383 36.5714ZM0 20.2824H11.4486V23.0148H3.04595V26.9031H11.1335V29.5304H3.04595V33.5238H11.4486V36.2562H0V20.2824ZM47.7899 6.41051V4.3087H46.9497C45.6893 4.3087 44.639 4.93924 44.1138 5.88506V4.41379H41.8031V16.0788H44.1138V9.45813C44.1138 7.67159 45.2691 6.5156 46.7396 6.5156C46.8446 6.41051 47.7899 6.41051 47.7899 6.41051ZM30.8797 9.14286C31.2998 7.35632 32.7702 6.20033 34.5558 6.20033C36.3414 6.20033 37.8118 7.35632 38.1269 9.14286H30.8797ZM34.5558 4.09852C31.1947 4.09852 28.4639 6.72578 28.4639 10.0887V10.1938C28.4639 13.6617 31.1948 16.289 34.7659 16.289C36.9716 16.289 38.6521 15.3432 39.9125 13.7668L38.2319 12.5057C37.3917 13.6617 36.2363 14.1872 34.7659 14.1872C32.7702 14.1872 31.1947 12.821 30.8797 10.8243H40.5427V10.0887C40.5427 6.72578 38.0219 4.09852 34.5558 4.09852ZM21.1116 14.2923C18.9059 14.2923 17.1203 12.4007 17.1203 10.1938C17.1203 7.98686 19.0109 6.20033 21.2166 6.20033C23.4223 6.20033 25.2079 7.98686 25.2079 10.1938C25.2079 12.4007 23.4223 14.2923 21.1116 14.2923ZM14.7046 15.9737H17.0153V14.5025C18.1707 15.6585 19.6411 16.289 21.2166 16.289C24.6827 16.289 27.4136 13.5566 27.4136 10.1938C27.4136 6.83087 24.6827 4.09852 21.2166 4.09852C19.6411 4.09852 18.1707 4.72906 17.0153 5.88506V0.10509H14.7046V15.9737ZM6.51204 14.0821C8.82276 14.0821 10.5033 12.4007 10.5033 9.87849V0H12.919V15.9737H10.5033V14.5025C9.45295 15.6585 7.87746 16.289 6.19694 16.289C2.73085 16.289 0 13.7668 0 9.98358V0H2.41575V9.87849C2.52079 12.5057 4.20131 14.0821 6.51204 14.0821Z" fill="#1D1A17"/>
</svg>
