<svg width="48" height="48" viewBox="0 0 48 48" fill="none" xmlns="http://www.w3.org/2000/svg">
<path d="M39.3195 15.6693C39.2226 15.4116 37.8809 12.8827 35.3912 9.71007C35.328 9.63332 35.2882 9.53936 35.2766 9.43977C35.1259 7.59297 34.8752 5.75609 34.5259 3.93753C34.4862 3.75493 34.3916 3.58958 34.2553 3.46464C34.1189 3.33971 33.9477 3.26146 33.7656 3.24087L31.1791 2.9218C31.1563 2.92041 31.1336 2.92041 31.1108 2.9218C30.966 2.9218 30.8272 2.98052 30.7248 3.08504C30.6224 3.18956 30.5649 3.33132 30.5649 3.47913V4.39733C30.5649 4.4062 30.5614 4.4147 30.5553 4.42098C30.5491 4.42725 30.5408 4.43077 30.5321 4.43077C30.524 4.43095 30.5162 4.42796 30.5103 4.42241C28.8899 2.92346 27.1407 1.57626 25.284 0.3971C24.9049 0.137555 24.4587 -0.000702323 24.0023 2.68284e-06C23.5459 -0.000702323 23.0997 0.137555 22.7206 0.3971C13.7899 6.02613 8.87347 15.1761 8.68375 15.6791C8.62771 15.7992 8.59879 15.9306 8.59912 16.0636C8.59911 16.2647 8.66473 16.46 8.7856 16.6187C8.90648 16.7774 9.07571 16.8905 9.26657 16.94L11.8422 17.4361C12.0123 17.4833 12.1645 17.5816 12.2791 17.7182C12.3938 17.8549 12.4655 18.0236 12.4851 18.2024C12.5055 18.6664 12.9928 29.0229 13.6029 31.7176C13.6534 31.9103 13.7648 32.0805 13.9198 32.202C14.0748 32.3234 14.2647 32.3892 14.4601 32.3892H14.4792C15.9806 32.3516 17.3551 32.3251 18.847 32.3056H18.8565H18.9698C19.0461 32.3052 19.1191 32.2741 19.1731 32.2191C19.227 32.164 19.2575 32.0895 19.2578 32.0116V31.9935C19.1964 31.0892 19.0667 29.0215 18.9616 26.8452C18.9616 26.7908 18.9548 26.7212 18.9521 26.6668C18.9476 26.5762 18.9214 26.4882 18.876 26.4102C18.8306 26.3323 18.7672 26.2668 18.6914 26.2196C18.2997 25.9807 17.9716 25.647 17.7362 25.248C17.5007 24.8489 17.3652 24.3969 17.3415 23.9317C17.205 20.2993 17.1381 16.1012 17.3319 12.8172C17.3348 12.6771 17.3921 12.544 17.4911 12.447C17.5902 12.3501 17.7229 12.2973 17.8601 12.3003C17.9973 12.3032 18.1278 12.3617 18.2227 12.4628C18.3177 12.5639 18.3694 12.6994 18.3665 12.8395V12.8799C18.2396 15.0702 18.23 17.659 18.2737 20.2129C18.2766 20.3792 18.3441 20.5375 18.4613 20.653C18.5194 20.7102 18.5879 20.7552 18.663 20.7853C18.738 20.8155 18.8182 20.8303 18.8988 20.8288C18.9795 20.8273 19.0591 20.8097 19.1331 20.7768C19.207 20.7439 19.2739 20.6965 19.33 20.6373C19.386 20.578 19.43 20.5081 19.4596 20.4314C19.4891 20.3548 19.5036 20.273 19.5021 20.1906C19.4557 17.62 19.4694 15.0145 19.5991 12.8172C19.6019 12.6771 19.6592 12.544 19.7583 12.447C19.8574 12.3501 19.9901 12.2973 20.1273 12.3003C20.2645 12.3032 20.3949 12.3617 20.4899 12.4628C20.5848 12.5639 20.6366 12.6994 20.6337 12.8395C20.6344 12.8529 20.6344 12.8664 20.6337 12.8799C20.5081 15.059 20.4972 17.6311 20.5409 20.1725C20.5434 20.3388 20.6105 20.4973 20.7275 20.613C20.8445 20.7288 21.0017 20.7924 21.1646 20.7898C21.3275 20.7872 21.4827 20.7187 21.5961 20.5992C21.7095 20.4798 21.7718 20.3193 21.7693 20.153C21.7229 17.5935 21.7365 14.9977 21.8662 12.8158C21.8676 12.7464 21.8824 12.6781 21.9098 12.6146C21.9371 12.551 21.9764 12.4937 22.0254 12.4457C22.0745 12.3977 22.1323 12.36 22.1956 12.3348C22.2589 12.3096 22.3265 12.2974 22.3944 12.2989C22.4624 12.3003 22.5293 12.3154 22.5916 12.3433C22.6538 12.3712 22.71 12.4113 22.757 12.4614C22.804 12.5115 22.8409 12.5705 22.8656 12.6352C22.8903 12.6998 22.9022 12.7687 22.9008 12.8381C22.9015 12.8515 22.9015 12.865 22.9008 12.8785C22.7165 16.072 22.7766 20.114 22.9008 23.66C22.9008 23.66 22.9008 23.6907 22.9008 23.6921C22.9008 23.6935 22.9008 23.7283 22.9008 23.7464V23.7812C22.9012 24.2414 22.7918 24.6948 22.582 25.1022C22.3723 25.5095 22.0685 25.8586 21.6969 26.1192C21.63 26.1665 21.5746 26.2287 21.5349 26.3011C21.4951 26.3736 21.4721 26.4543 21.4676 26.5372C21.4676 26.5372 21.4048 27.0806 21.6396 29.7196C21.7502 30.8719 21.8334 31.6702 21.873 32.0311C21.8817 32.0986 21.9142 32.1605 21.9645 32.2051C22.0148 32.2498 22.0794 32.2741 22.146 32.2736H22.3849H23.9231H24.1224C24.794 32.2736 25.4327 32.2736 26.0497 32.2736L27.5088 32.2875C27.5759 32.288 27.6408 32.2633 27.6911 32.218C27.7415 32.1728 27.7737 32.1102 27.7818 32.0423C28.1203 28.8794 28.1994 27.1043 28.1994 27.1043C28.1982 27.0284 28.1697 26.9556 28.1194 26.8996C28.0691 26.8436 28.0005 26.8084 27.9265 26.8006L26.1521 26.5498C26.0341 26.5352 25.923 26.4853 25.8326 26.4065C25.7423 26.3277 25.6768 26.2234 25.6443 26.1067C25.6219 26.0157 25.6146 25.9215 25.6225 25.828C26.3418 15.2889 29.7445 11.7374 29.7445 11.7374C29.7946 11.6851 29.85 11.6384 29.9097 11.598C29.9772 11.5481 30.055 11.5147 30.1371 11.5002C30.2193 11.4858 30.3036 11.4907 30.3835 11.5146C30.4635 11.5386 30.5371 11.5809 30.5985 11.6383C30.66 11.6958 30.7078 11.7668 30.7382 11.846C30.7626 11.928 30.7773 12.0127 30.7819 12.0982C31.0753 15.4116 30.932 21.0489 30.7505 25.4463C30.5963 29.179 30.4093 32.1077 30.4093 32.1077V32.1147C30.4093 32.1432 30.4148 32.1714 30.4255 32.1977C30.4362 32.224 30.4519 32.2478 30.4717 32.2679C30.4915 32.288 30.515 32.3039 30.5408 32.3146C30.5666 32.3254 30.5943 32.3309 30.6222 32.3307C31.5886 32.3474 32.5399 32.3683 33.5486 32.3934H33.5445C33.7398 32.3932 33.9296 32.3273 34.0846 32.2059C34.2395 32.0845 34.351 31.9143 34.4017 31.7218C35.0118 29.0341 35.4936 18.6775 35.5195 18.2066C35.5389 18.0277 35.6106 17.8589 35.7253 17.7222C35.8399 17.5855 35.9923 17.4873 36.1624 17.4402L38.7312 16.9303C38.9221 16.8807 39.0913 16.7676 39.2122 16.6089C39.333 16.4502 39.3987 16.2549 39.3987 16.0539C39.4007 15.9213 39.3736 15.7899 39.3195 15.6693Z" fill="#1D1A17"/>
<path d="M4.19851 38.4321H2.04193C1.34445 38.4321 1.34445 38.4321 1.1984 39.2681C1.05236 40.1041 1.05372 40.1292 1.69387 40.1292H2.97008L2.24257 44.376C2.06786 45.3263 1.65975 45.9798 0.409479 46.3657C0.0887212 46.4549 0 46.5747 0 46.7224C0 46.9007 0.0586925 47.0498 0.203375 47.4065C0.408113 47.9109 0.524132 48.0001 0.698842 48.0001C0.905431 47.9804 1.10972 47.9408 1.30896 47.8816C3.08337 47.2867 3.81224 45.8906 4.10296 44.2284L4.92192 39.4465C5.0666 38.4363 5.0666 38.4363 4.19441 38.4363" fill="#1D1A17"/>
<path d="M11.4981 38.4318C10.6259 38.4318 10.6259 38.4318 10.5085 39.1745L9.86838 43.0354C9.69503 44.164 9.40294 44.8174 8.32738 44.8174C7.27911 44.8174 6.90103 44.164 7.07574 43.1538L7.68723 39.4713C7.86194 38.4318 7.83191 38.4318 6.93106 38.4318C6.05751 38.4318 6.02884 38.4318 5.91146 39.1452L5.27131 43.0005C4.89323 45.1978 6.22676 46.5647 8.12264 46.5647C10.2478 46.5647 11.3234 45.5893 11.6714 43.2681L12.3116 39.4364C12.4576 38.4263 12.3989 38.4263 11.4926 38.4263" fill="#1D1A17"/>
<path d="M15.4853 44.7577C16.1827 44.7284 16.5608 44.4024 16.5608 44.0749C16.5608 43.6569 16.0667 43.5176 15.3979 43.303C14.0876 42.885 12.8946 42.4113 12.8946 40.9859C12.8946 39.2931 14.2595 38.3721 15.9794 38.3721C16.7069 38.3721 17.5217 38.4027 18.0445 38.4612C18.5099 38.5212 18.6273 38.6702 18.4813 39.4115C18.3352 40.1527 18.1619 40.214 17.7538 40.1848C17.2597 40.1541 16.6195 40.0956 15.8633 40.0956C14.9898 40.0956 14.7277 40.4216 14.7277 40.7184C14.7277 41.1044 15.0771 41.3134 15.892 41.5544C17.4043 42.0003 18.3939 42.6245 18.3939 43.9607C18.3939 45.5351 17.2597 46.4547 15.4266 46.5147C14.5508 46.5463 13.6741 46.4964 12.8073 46.3656C12.2258 46.2778 12.1971 46.2778 12.3418 45.4153C12.4879 44.6434 12.4879 44.5793 13.0407 44.6434C13.8512 44.749 14.6686 44.7886 15.4853 44.7619" fill="#1D1A17"/>
<path d="M24.9986 38.4321H20.0849C19.386 38.4321 19.386 38.4321 19.24 39.2932C19.0939 40.1543 19.124 40.1543 19.7355 40.1543H21.3351L20.4329 45.4712C20.2582 46.5106 20.2882 46.5106 21.1905 46.5106C22.034 46.5106 22.0627 46.5106 22.1787 45.768L23.1095 40.1543H24.6519C25.3508 40.1543 25.3508 40.1543 25.4954 39.2932C25.6401 38.4321 25.6415 38.4321 25.0013 38.4321" fill="#1D1A17"/>
<path d="M33.6686 40.125C34.3674 40.125 34.3674 40.125 34.5121 39.2639C34.6568 38.4028 34.6581 38.4028 34.018 38.4028H30.4978C29.2462 38.4028 29.2762 38.4028 29.0715 39.6791L28.1693 45.056C27.9372 46.4493 27.9659 46.4493 29.2175 46.4493H32.6503C33.3778 46.4493 33.3492 46.4493 33.4938 45.6133C33.6399 44.7508 33.6399 44.7508 32.9997 44.7508H30.0324L30.2644 43.207H32.7377C33.4065 43.207 33.4065 43.207 33.5239 42.4045C33.6399 41.5685 33.6399 41.5685 32.7377 41.5685H30.5538L30.7872 40.1124L33.6686 40.125Z" fill="#1D1A17"/>
<path d="M37.3933 42.9757L38.5276 40.4218C38.6149 40.2142 38.6149 40.2142 38.761 40.2142C38.907 40.2142 38.9056 40.2142 38.9357 40.4524L39.2837 42.9757H37.3933ZM40.4767 39.4116C40.302 38.4028 40.302 38.4028 38.9056 38.4028C37.5967 38.4028 37.6253 38.4028 37.2186 39.2388L34.2799 45.5088C33.8431 46.4005 33.9305 46.4841 35.0074 46.4841C35.8509 46.4841 35.8509 46.4841 36.2004 45.6816L36.6658 44.6129H39.5171L39.6618 45.6816C39.7792 46.4841 39.8079 46.4841 40.6514 46.4841C41.6068 46.4841 41.6996 46.4242 41.5249 45.4447L40.4767 39.4116Z" fill="#1D1A17"/>
<path d="M47.4309 38.4321H42.4844C41.787 38.4321 41.787 38.4321 41.6409 39.2932C41.4949 40.1543 41.5249 40.1543 42.135 40.1543H43.7361L42.8338 45.4712C42.6591 46.5106 42.6878 46.5106 43.59 46.5106C44.4335 46.5106 44.4636 46.5106 44.5796 45.768L45.5105 40.1543H47.0569C47.7544 40.1543 47.7544 40.1543 47.9004 39.2932C48.0752 38.4321 48.0752 38.4321 47.435 38.4321" fill="#1D1A17"/>
</svg>
